<svg version="1.1" xmlns="http://www.w3.org/2000/svg" xmlns:xlink="http://www.w3.org/1999/xlink" viewBox="0 0 171 171"><g fill="none" fill-rule="nonzero" stroke="none" stroke-width="1" stroke-linecap="butt" stroke-linejoin="miter" stroke-miterlimit="10" stroke-dasharray="" stroke-dashoffset="0" font-family="none" font-weight="none" font-size="none" text-anchor="none" style="mix-blend-mode: normal"><path d="M0,171.99219v-171.99219h171.99219v171.99219z" fill="none"></path><g fill="#47a8e1"><path d="M42.75,14.25c-7.79656,0 -14.25,6.45344 -14.25,14.25v114c0,7.79657 6.45344,14.25 14.25,14.25h85.5c7.79657,0 14.25,-6.45343 14.25,-14.25v-85.5l-42.75,-42.75zM42.75,28.5h49.875v35.625h35.625v78.375h-85.5zM84.30322,64.125c-3.91875,0 -6.85403,2.66074 -7.43115,7.292c-0.57,4.62413 1.72236,12.71022 5.71949,20.21997c-1.71712,5.20125 -3.43236,9.8207 -5.71949,14.44483c-7.43137,2.3085 -14.2874,5.77036 -17.14453,9.24023c-4.56712,5.19412 -2.28111,8.66389 -1.14111,10.39526c1.14713,1.73137 2.8618,2.53272 5.14893,2.53272c1.14713,0 2.29013,-0.23 3.43726,-0.80713c4.57425,-1.73137 9.13303,-8.66801 13.70727,-16.75489c3.99713,-1.15425 7.99848,-2.30349 11.99561,-2.88062c3.99712,4.617 8.01184,7.51543 11.43897,8.66968c3.99712,1.15425 7.4257,-0.58703 9.14282,-4.63403c1.14,-3.46988 0.56098,-6.34671 -2.29615,-8.08521c-3.43425,-2.3085 -9.14916,-2.31663 -16.00341,-1.7395c-2.28712,-3.46275 -4.559,-6.92539 -6.27613,-10.39526c2.85713,-8.664 3.99279,-16.1664 2.85279,-20.79053c-1.14713,-4.047 -3.5124,-6.70752 -7.43115,-6.70752z"></path></g></g></svg>